<svg xmlns="http://www.w3.org/2000/svg">
	<symbol id="twitter" viewBox="0 0 32 32">
		<path d="M16-0.034c-8.841 0-16.035 7.192-16.035 16.034s7.194 16.034 16.035 16.034 16.035-7.192 16.035-16.034-7.194-16.034-16.035-16.034zM16 30.966c-8.252 0-14.965-6.714-14.965-14.966s6.713-14.966 14.965-14.966 14.965 6.714 14.965 14.966-6.713 14.966-14.965 14.966zM24.794 11.046c0.11-0.204 0.202-0.419 0.273-0.643 0.067-0.212-0.002-0.442-0.176-0.581-0.173-0.138-0.415-0.154-0.605-0.042-0.513 0.305-1.065 0.53-1.646 0.673-0.698-0.631-1.615-0.987-2.562-0.987-2.105 0-3.817 1.712-3.817 3.815 0 0.053 0.001 0.105 0.003 0.158-2.235-0.279-4.298-1.415-5.735-3.178-0.11-0.136-0.28-0.207-0.456-0.195-0.175 0.014-0.332 0.112-0.42 0.265-0.338 0.58-0.517 1.243-0.517 1.919 0 0.64 0.159 1.256 0.451 1.802-0.074 0.012-0.147 0.039-0.214 0.078-0.163 0.097-0.264 0.292-0.264 0.481 0 1.135 0.505 2.177 1.319 2.885-0.012 0.011-0.023 0.023-0.035 0.035-0.125 0.142-0.166 0.338-0.108 0.518 0.351 1.094 1.164 1.946 2.184 2.365-1.041 0.515-2.25 0.716-3.406 0.579-0.244-0.022-0.481 0.116-0.566 0.352-0.083 0.234 0.005 0.495 0.215 0.63 1.592 1.020 3.431 1.559 5.319 1.559 6.18 0 9.874-5.020 9.874-9.873 0-0.055 0-0.109-0.001-0.164 0.597-0.466 1.115-1.023 1.541-1.66 0.132-0.197 0.118-0.459-0.035-0.641-0.151-0.179-0.4-0.241-0.616-0.15zM23.049 12.801c-0.147 0.106-0.231 0.279-0.222 0.461 0.006 0.132 0.009 0.266 0.009 0.398 0 4.328-3.293 8.805-8.804 8.805-0.989 0-1.964-0.166-2.887-0.488 1.105-0.211 2.141-0.682 3.045-1.39 0.178-0.14 0.249-0.376 0.177-0.591-0.072-0.214-0.271-0.36-0.497-0.364-0.891-0.018-1.699-0.461-2.194-1.162 0.253-0.017 0.501-0.059 0.742-0.124 0.239-0.065 0.401-0.286 0.393-0.534s-0.186-0.457-0.429-0.506c-1.003-0.201-1.79-0.943-2.081-1.905 0.266 0.067 0.539 0.106 0.812 0.115 0.235-0.001 0.453-0.145 0.526-0.371s-0.013-0.475-0.212-0.607c-0.765-0.512-1.222-1.366-1.222-2.287 0-0.223 0.027-0.443 0.079-0.658 1.731 1.775 4.080 2.847 6.568 2.972 0.176 0.001 0.33-0.062 0.437-0.191s0.148-0.3 0.11-0.464c-0.047-0.203-0.071-0.414-0.071-0.627 0-1.515 1.233-2.747 2.748-2.747 0.757 0 1.488 0.316 2.005 0.868 0.126 0.135 0.312 0.194 0.494 0.159 0.165-0.033 0.328-0.071 0.489-0.115-0.072 0.054-0.147 0.104-0.226 0.151-0.216 0.129-0.312 0.393-0.231 0.631s0.324 0.394 0.569 0.357c0.061-0.007 0.121-0.015 0.182-0.023-0.099 0.082-0.203 0.161-0.309 0.237z"></path>
	</symbol>
	<symbol id="facebook" viewBox="0 0 32 32">
		<path d="M16-0.034c-8.841 0-16.035 7.192-16.035 16.034s7.194 16.034 16.035 16.034 16.035-7.192 16.035-16.034-7.194-16.034-16.035-16.034zM16 30.966c-8.252 0-14.965-6.714-14.965-14.966s6.713-14.966 14.965-14.966 14.965 6.714 14.965 14.966-6.713 14.966-14.965 14.966zM19.5 7h-2.668c-3.398-0.034-3.832 2.069-3.832 4.345v1.655h-1.5c-0.295-0.034-0.535 0.205-0.5 0.5v3c-0.035 0.295 0.205 0.534 0.5 0.5h1.5v7.5c-0.031 0.295 0.208 0.534 0.503 0.5h3.055c0.295 0.034 0.534-0.205 0.44-0.5l0.002-7.5h2.5c0.295 0.034 0.535-0.205 0.5-0.5v-3c0.035-0.295-0.205-0.534-0.5-0.5h-2.503l0.003-1.5c0.097-0.639 0.097-0.535 0.69-0.5h1.789c0.139-0.031 0.287-0.014 0.391-0.115s0.164-0.239 0.129-0.385v-3c0.036-0.295-0.204-0.534-0.499-0.5zM18.965 9.944l-1.254-0.048c-1.553 0-1.683 0.843-1.683 1.706l-0.004 1.896c0 0.142 0.056 0.278 0.156 0.379s0.236 0.156 0.378 0.156h2.442v1.932h-2.44c-0.295 0-0.534 0.239-0.535 0.534l-0.001 7.501h-2.024v-7.5c0-0.295-0.201-0.534-0.497-0.534h-1.503v-1.932h1.503c0.142 0 0.278-0.056 0.378-0.156s0.118-0.237 0.118-0.379v-2.155c0-2.242 0.453-3.31 2.832-3.31h2.133v1.91z"></path>
	</symbol>
	<symbol id="linkedin" viewBox="0 0 32 32">
		<path d="M19.515 11.952c-0.678 0-1.18 0.171-1.573 0.387-0.063-0.224-0.27-0.388-0.514-0.339h-2.984c-0.295-0.049-0.534 0.19-0.443 0.5v11c-0.091 0.28 0.148 0.52 0.443 0.5h2.984c0.295 0.020 0.534-0.22 0.534-0.515l-0.001-6.648c-0.001-0.003-0.012-0.321 0.189-0.54 0.161-0.174 0.438-0.263 0.821-0.263 0.638 0 0.922 0.261 1.028 0.845v6.606c-0.105 0.295 0.134 0.535 0.429 0.515h3.145c0.295 0.020 0.534-0.22 0.428-0.515v-6.828c0.105-3.472-2.368-4.705-4.486-4.705zM23.038 23h-2.076v-6.121c0-1.181-0.763-1.913-1.99-1.913-0.694 0-1.234 0.204-1.606 0.606-0.517 0.56-0.477 1.27-0.366 1.428v6h-2.022v-9.98h1.916v0.336c0 0.203 0.115 0.39 0.298 0.479s0.4 0.067 0.562-0.056l0.14-0.108c0.405-0.319 0.824-0.65 1.622-0.65 0.826 0 3.523 0.263 3.523 3.637v6.342zM11 6.966c-1.122 0-2.034 0.912-2.034 2.034s0.912 2.034 2.034 2.034 2.034-0.912 2.034-2.034-0.912-2.034-2.034-2.034zM11 9.966c-0.532 0-0.966-0.434-0.966-0.966s0.434-0.966 0.966-0.966 0.966 0.434 0.966 0.966-0.434 0.966-0.966 0.966zM12.428 11.951h-2.968c-0.295 0-0.534 0.239-0.46 0.549v11c-0.074 0.28 0.165 0.52 0.46 0.5h2.968c0.295 0.020 0.534-0.22 0.534-0.515v-11c0-0.295-0.239-0.534-0.534-0.534zM12 23h-2.006v-9.98h2.006v9.98zM16-0.034c-8.842 0-16.034 7.192-16.034 16.034s7.192 16.034 16.034 16.034 16.034-7.192 16.034-16.034-7.192-16.034-16.034-16.034zM16 30.966c-8.252 0-14.966-6.714-14.966-14.966s6.714-14.966 14.966-14.966 14.966 6.714 14.966 14.966-6.714 14.966-14.966 14.966z"></path>
	</symbol>
	<symbol id="github" viewBox="0 0 32 32">
		<path d="M16 0.395c-8.836 0-16 7.163-16 16 0 7.069 4.585 13.067 10.942 15.182 0.8 0.148 1.094-0.347 1.094-0.77 0-0.381-0.015-1.642-0.022-2.979-4.452 0.968-5.391-1.888-5.391-1.888-0.728-1.849-1.776-2.341-1.776-2.341-1.452-0.993 0.11-0.973 0.11-0.973 1.606 0.113 2.452 1.649 2.452 1.649 1.427 2.446 3.743 1.739 4.656 1.33 0.143-1.034 0.558-1.74 1.016-2.14-3.554-0.404-7.29-1.777-7.29-7.907 0-1.747 0.625-3.174 1.649-4.295-0.166-0.403-0.714-2.030 0.155-4.234 0 0 1.344-0.43 4.401 1.64 1.276-0.355 2.645-0.532 4.005-0.539 1.359 0.006 2.729 0.184 4.008 0.539 3.054-2.070 4.395-1.64 4.395-1.64 0.871 2.204 0.323 3.831 0.157 4.234 1.026 1.12 1.647 2.548 1.647 4.295 0 6.145-3.743 7.498-7.306 7.895 0.574 0.497 1.085 1.47 1.085 2.963 0 2.141-0.019 3.864-0.019 4.391 0 0.426 0.288 0.925 1.099 0.768 6.354-2.118 10.933-8.113 10.933-15.18 0-8.837-7.164-16-16-16z"></path>
	</symbol>
	<symbol id="youtube" viewBox="0 0 32 32">
		<path d="M31.681 9.6c0 0-0.313-2.206-1.275-3.175-1.219-1.275-2.581-1.281-3.206-1.356-4.475-0.325-11.194-0.325-11.194-0.325h-0.012c0 0-6.719 0-11.194 0.325-0.625 0.075-1.987 0.081-3.206 1.356-0.963 0.969-1.269 3.175-1.269 3.175s-0.319 2.588-0.319 5.181v2.425c0 2.587 0.319 5.181 0.319 5.181s0.313 2.206 1.269 3.175c1.219 1.275 2.819 1.231 3.531 1.369 2.563 0.244 10.881 0.319 10.881 0.319s6.725-0.012 11.2-0.331c0.625-0.075 1.988-0.081 3.206-1.356 0.962-0.969 1.275-3.175 1.275-3.175s0.319-2.587 0.319-5.181v-2.425c-0.006-2.588-0.325-5.181-0.325-5.181zM12.694 20.15v-8.994l8.644 4.513-8.644 4.481z"></path>
	</symbol>
	<symbol id="googleplus" viewBox="0 0 32 32">
		<path d="M16-0.034c-8.842 0-16.034 7.192-16.034 16.034s7.192 16.034 16.034 16.034 16.034-7.192 16.034-16.034-7.192-16.034-16.034-16.034zM16 30.966c-8.252 0-14.966-6.714-14.966-14.966s6.714-14.966 14.966-14.966 14.966 6.714 14.966 14.966-6.714 14.966-14.966 14.966zM18.034 9.562c0-0.295-0.239-0.534-0.534-0.534h-4.26c-0.026 0-0.047 0.011-0.072 0.015-0.057-0.002-0.11-0.015-0.168-0.015-2.225 0-4.034 1.543-4.034 3.44s1.81 3.44 4.034 3.44c0.307 0 0.603-0.035 0.891-0.091-0.075 0.291-0.116 0.625-0.066 0.998 0.047 0.349 0.186 0.683 0.368 1.008-0.371-0.065-0.753-0.109-1.151-0.109-2.752 0-4.991 1.655-4.991 3.69s2.239 3.69 4.991 3.69c2.753 0 4.992-1.655 4.992-3.69 0-1.046-0.598-1.987-1.547-2.659-0.038-0.096-0.095-0.185-0.187-0.247-0.848-0.574-1.323-1.184-1.413-1.812-0.1-0.699 0.312-1.21 0.333-1.236 0.045-0.053 0.076-0.113 0.097-0.175 1.036-0.623 1.718-1.647 1.718-2.808 0-0.921-0.432-1.754-1.125-2.372h1.59c0.295 0.002 0.534-0.238 0.534-0.533zM13.042 24.028c-2.163 0-3.923-1.177-3.923-2.622s1.76-2.622 3.923-2.622 3.924 1.177 3.924 2.622-1.761 2.622-3.924 2.622zM13 14.841c-1.635 0-2.966-1.064-2.966-2.372s1.331-2.372 2.966-2.372 2.966 1.064 2.966 2.372-1.331 2.372-2.966 2.372zM25.312 12h-2.341v-2.375c0-0.295-0.239-0.534-0.534-0.534s-0.534 0.239-0.437 0.409v2.5h-2.438c-0.295-0.034-0.534 0.205-0.534 0.5s0.239 0.534 0.534 0.5h2.438v2.375c0 0.295 0.143 0.534 0.438 0.534s0.534-0.239 0.534-0.534v-2.375h2.341c0.295 0.034 0.534-0.205 0.534-0.5s-0.24-0.534-0.535-0.5z"></path>
	</symbol>
	<symbol id="pinterest" viewBox="0 0 32 32">
		<path d="M16 0c-8.825 0-16 7.175-16 16s7.175 16 16 16 16-7.175 16-16-7.175-16-16-16zM16 29.863c-1.431 0-2.806-0.219-4.106-0.619 0.563-0.919 1.412-2.431 1.725-3.631 0.169-0.65 0.863-3.294 0.863-3.294 0.45 0.863 1.775 1.594 3.175 1.594 4.181 0 7.194-3.844 7.194-8.625 0-4.581-3.738-8.006-8.544-8.006-5.981 0-9.156 4.019-9.156 8.387 0 2.031 1.081 4.563 2.813 5.369 0.262 0.125 0.4 0.069 0.463-0.188 0.044-0.194 0.281-1.131 0.387-1.575 0.031-0.137 0.019-0.262-0.094-0.4-0.575-0.694-1.031-1.975-1.031-3.162 0-3.056 2.313-6.019 6.256-6.019 3.406 0 5.788 2.319 5.788 5.637 0 3.75-1.894 6.35-4.356 6.35-1.363 0-2.381-1.125-2.050-2.506 0.394-1.65 1.15-3.425 1.15-4.613 0-1.063-0.569-1.95-1.756-1.95-1.394 0-2.506 1.438-2.506 3.369 0 1.225 0.412 2.056 0.412 2.056s-1.375 5.806-1.625 6.887c-0.281 1.2-0.169 2.881-0.050 3.975-5.156-2.012-8.813-7.025-8.813-12.9 0-7.656 6.206-13.863 13.862-13.863s13.863 6.206 13.863 13.863c0 7.656-6.206 13.863-13.863 13.863z"></path>
	</symbol>
	<symbol id="heart" viewBox="0 0 32 32">
		<path d="M23.6 2c-3.363 0-6.258 2.736-7.599 5.594-1.342-2.858-4.237-5.594-7.601-5.594-4.637 0-8.4 3.764-8.4 8.401 0 9.433 9.516 11.906 16.001 21.232 6.13-9.268 15.999-12.1 15.999-21.232 0-4.637-3.763-8.401-8.4-8.401z"></path>
	</symbol>
</svg>